<?xml version="1.0" encoding="utf-8"?>
<!-- Generator: Adobe Illustrator 19.2.1, SVG Export Plug-In . SVG Version: 6.00 Build 0)  -->
<svg version="1.1" id="Layer_1" xmlns="http://www.w3.org/2000/svg" xmlns:xlink="http://www.w3.org/1999/xlink" x="0px" y="0px"
	 viewBox="0 0 30.5 30.3" style="enable-background:new 0 0 30.5 30.3;" xml:space="preserve">
<style type="text/css">
	.st0{fill:#FFFFFF;}
</style>
<g>
	<path class="st0" d="M28.7,16.9H2c-0.5,0-1-0.4-1-1v-1.4c0-0.5,0.4-1,1-1h26.7c0.5,0,1,0.4,1,1v1.4C29.7,16.4,29.3,16.9,28.7,16.9z
		"/>
	<path class="st0" d="M13.6,28.5V1.8c0-0.5,0.4-1,1-1H16c0.5,0,1,0.4,1,1v26.7c0,0.5-0.4,1-1,1h-1.4C14.1,29.5,13.6,29.1,13.6,28.5z
		"/>
</g>
</svg>
