<?xml version="1.0" encoding="utf-8"?>
<!-- Generator: Adobe Illustrator 19.2.1, SVG Export Plug-In . SVG Version: 6.00 Build 0)  -->
<svg version="1.1" id="Layer_1" xmlns="http://www.w3.org/2000/svg" xmlns:xlink="http://www.w3.org/1999/xlink" x="0px" y="0px"
	 viewBox="0 0 23.8 23.7" style="enable-background:new 0 0 23.8 23.7;" xml:space="preserve">
<style type="text/css">
	.st0{fill:#CCCCCC;}
</style>
<g>
	<path class="st0" d="M20.2,22.5L1.3,3.6c-0.4-0.4-0.4-1,0-1.4l1-1c0.4-0.4,1-0.4,1.4,0l18.9,18.9c0.4,0.4,0.4,1,0,1.4l-1,1
		C21.3,22.9,20.6,22.9,20.2,22.5z"/>
	<path class="st0" d="M1.3,20.1L20.2,1.2c0.4-0.4,1-0.4,1.4,0l1,1c0.4,0.4,0.4,1,0,1.4L3.7,22.5c-0.4,0.4-1,0.4-1.4,0l-1-1
		C0.9,21.1,0.9,20.5,1.3,20.1z"/>
</g>
</svg>
